<?xml version="1.0" standalone="no"?>
<svg version="1.0" xmlns="http://www.w3.org/2000/svg"
 width="1003" height="703" viewBox="0 0 1003 703"
 preserveAspectRatio="xMidYMid meet">
<g transform="translate(0,703) scale(0.1,-0.1)" stroke="none">
<!-- C Letter (right) - Dark Navy -->
<path fill="#1e3a5f" d="M7030 6770 c-40 -14 -67 -34 -100 -71 -25 -28 -294 -302 -599 -609
l-554 -558 8 -449 7 -450 -54 -31 c-71 -39 -212 -157 -263 -218 -191 -229
-292 -479 -325 -806 -8 -78 -8 -138 0 -215 33 -328 134 -578 325 -807 51 -61
192 -179 263 -218 l54 -31 -7 -450 -8 -449 554 -558 c305 -307 574 -581 599
-609 138 -156 387 -95 456 111 40 122 -21 259 -146 324 -50 26 -181 26 -233 0
l-39 -19 -434 434 -434 434 0 338 c0 317 1 338 18 333 9 -2 37 -7 62 -11 25
-3 57 -8 73 -11 l27 -6 0 -188 0 -189 493 -498 c270 -274 553 -560 627 -636
l134 -137 345 0 344 0 57 -54 c73 -70 140 -93 226 -77 66 13 109 37 157 91 54
59 68 94 70 169 6 233 -271 365 -445 212 l-36 -31 -290 0 -290 0 -536 541
-536 541 0 124 0 124 148 0 147 0 510 -510 510 -510 419 0 419 0 40 -36 c123
-112 307 -101 402 22 92 121 83 266 -22 365 -62 60 -98 73 -188 74 -93 0 -129
-14 -193 -75 l-41 -40 -353 0 -353 0 -280 283 c-154 155 -306 309 -338 343
l-58 61 72 77 72 77 201 -200 201 -201 214 0 214 0 39 -36 c54 -49 98 -65 175
-65 75 0 131 23 187 77 138 134 100 351 -78 441 -43 22 -59 25 -121 21 -82 -6
-134 -29 -188 -85 l-38 -38 -137 3 -137 4 -147 146 c-82 81 -148 151 -148 155
0 5 57 67 127 138 l126 129 666 0 666 0 35 -37 c19 -20 59 -47 89 -61 111 -51
249 -8 325 101 35 50 39 64 44 129 6 96 -20 160 -89 222 -111 100 -247 100
-358 0 l-49 -44 -732 0 -732 0 -232 -230 -232 -230 -531 0 c-619 0 -653 3
-798 75 -49 25 -114 65 -143 91 -106 93 -192 243 -239 419 -23 88 -26 119 -26
255 0 136 3 167 26 255 47 176 133 326 239 419 29 26 94 66 143 91 145 72 179
75 798 75 l531 0 232 -230 232 -230 327 0 327 0 49 -44 c111 -100 247 -100
358 0 69 62 95 126 89 222 -5 65 -9 79 -44 129 -76 109 -214 152 -325 101 -30
-14 -70 -41 -89 -61 l-35 -37 -261 0 -261 0 -126 129 c-70 71 -127 133 -127
138 0 4 66 74 148 155 l147 146 137 4 137 3 38 -38 c54 -56 106 -79 188 -85
62 -4 78 -1 121 21 178 90 216 307 78 441 -56 54 -112 77 -187 77 -77 0 -121
-16 -175 -65 l-39 -36 -214 0 -214 0 -201 -201 -201 -200 -72 77 -72 77 58 61
c32 34 184 188 338 343 l280 283 543 0 543 0 41 -40 c64 -61 100 -75 193 -75
90 1 126 14 188 74 77 73 104 174 73 269 -67 200 -296 260 -453 118 l-40 -36
-609 0 -609 0 -510 -510 -510 -510 -147 0 -148 0 0 124 0 124 536 541 536 541
290 0 290 0 36 -31 c131 -115 336 -73 417 86 26 50 30 68 28 126 -2 76 -17
111 -70 169 -48 54 -91 78 -157 91 -86 16 -153 -7 -226 -77 l-57 -54 -344 0
-345 0 -134 -137 c-74 -76 -357 -362 -627 -636 l-493 -498 0 -189 0 -188 -27
-6 c-16 -3 -48 -8 -73 -11 -25 -4 -53 -9 -62 -11 -17 -5 -18 16 -18 333 l0
338 436 436 436 436 39 -20 c56 -28 161 -27 216 1 60 31 110 78 136 126 17 32
22 58 22 121 0 90 -14 125 -74 188 -75 80 -180 104 -281 67z m2406 -1019 c33
-20 64 -75 64 -113 0 -12 -9 -37 -20 -55 -41 -68 -121 -91 -180 -51 -47 32
-62 63 -57 122 4 42 10 55 41 83 29 27 44 33 78 33 24 0 56 -8 74 -19z m-622
-1633 c78 -35 86 -174 12 -219 -46 -28 -117 -26 -154 6 -63 53 -66 133 -7 192
28 28 40 33 79 33 25 0 56 -5 70 -12z m822 -1077 c74 -45 66 -184 -12 -219
-14 -7 -45 -12 -70 -12 -39 0 -51 5 -79 33 -59 59 -56 139 7 192 37 32 108 34
154 6z m-988 -896 c43 -49 50 -93 21 -144 -50 -90 -167 -94 -219 -8 -25 41
-25 93 0 135 24 40 49 51 116 51 47 1 55 -2 82 -34z m408 -740 c32 -20 64 -73
64 -103 0 -38 -31 -93 -64 -113 -18 -11 -50 -19 -74 -19 -34 0 -49 6 -78 33
-31 28 -37 41 -41 83 -5 59 10 90 57 122 40 27 92 26 136 -3z m-1860 -851 c45
-21 74 -70 74 -124 0 -108 -113 -173 -216 -124 -97 46 -98 200 -1 248 41 20
100 20 143 0z"/>
<!-- D Letter (left) - Steel Blue -->
<path fill="#5a7d8a" d="M2845 6771 c-152 -40 -243 -198 -201 -346 46 -155 233 -239 379 -169
l38 18 434 -434 435 -435 0 -338 c0 -317 -1 -338 -17 -333 -10 2 -38 7 -63 11
-25 3 -57 8 -72 11 l-28 6 0 188 0 188 -512 519 c-282 285 -565 571 -627 636
l-115 117 -345 0 -344 0 -57 54 c-73 70 -140 93 -226 77 -66 -13 -109 -37
-157 -91 -53 -58 -68 -93 -70 -169 -2 -58 2 -76 28 -126 81 -159 286 -201 417
-86 l36 31 289 0 289 0 440 -442 c242 -244 486 -491 542 -549 l102 -107 0
-109 c0 -71 -4 -113 -12 -121 -8 -8 -55 -12 -147 -12 l-136 0 -510 509 -510
509 -424 6 -424 6 -40 36 c-59 54 -111 74 -192 74 -83 0 -135 -21 -190 -75
-56 -56 -79 -116 -79 -200 0 -82 20 -129 81 -186 62 -60 98 -73 188 -74 93 0
132 15 191 75 l39 40 355 0 355 0 280 -283 c154 -155 306 -309 338 -343 l58
-61 -72 -77 -72 -77 -196 195 -196 195 -216 3 -216 3 -43 38 c-57 52 -96 67
-177 67 -78 0 -131 -22 -187 -76 -138 -134 -100 -351 78 -441 43 -22 59 -25
121 -21 83 6 136 30 191 88 l38 40 130 0 130 0 153 -152 c84 -84 153 -156 153
-161 0 -5 -57 -67 -127 -138 l-126 -129 -666 0 -666 0 -35 37 c-19 20 -59 47
-89 61 -111 51 -249 8 -325 -101 -35 -50 -39 -64 -44 -129 -6 -96 20 -160 89
-222 111 -100 247 -100 358 0 l49 44 731 0 732 0 239 236 240 236 527 -5 c609
-6 640 -9 788 -82 50 -25 114 -65 143 -91 106 -93 191 -243 239 -419 24 -88
27 -118 27 -255 0 -137 -3 -167 -27 -255 -48 -176 -133 -326 -239 -419 -29
-26 -93 -66 -143 -91 -148 -73 -179 -76 -788 -82 l-527 -5 -240 236 -239 236
-327 0 -326 0 -49 44 c-111 100 -247 100 -358 0 -69 -62 -95 -126 -89 -222 5
-65 9 -79 44 -129 76 -109 214 -152 325 -101 30 14 70 41 89 61 l35 37 261 0
261 0 126 -129 c70 -71 127 -133 127 -138 0 -5 -69 -77 -153 -161 l-153 -152
-130 0 -130 0 -38 40 c-55 58 -108 82 -191 88 -62 4 -78 1 -121 -21 -178 -90
-216 -307 -78 -441 56 -54 109 -76 187 -76 81 0 120 15 177 67 l43 38 216 3
216 3 196 195 196 195 72 -77 72 -77 -58 -61 c-32 -34 -184 -188 -338 -343
l-280 -283 -545 0 -545 0 -39 40 c-59 60 -98 75 -191 75 -90 -1 -126 -14 -188
-74 -61 -57 -81 -104 -81 -186 0 -84 23 -144 79 -200 55 -54 107 -75 190 -75
83 0 129 19 198 78 l48 42 607 0 607 0 510 510 510 510 136 0 c92 0 139 -4
147 -12 8 -8 12 -50 12 -121 l0 -109 -102 -107 c-56 -58 -300 -305 -542 -549
l-440 -442 -289 0 -289 0 -36 31 c-51 45 -97 62 -172 62 -110 1 -197 -51 -244
-145 -21 -42 -26 -66 -26 -128 0 -66 4 -82 28 -121 34 -53 93 -106 138 -125
49 -20 161 -18 209 5 22 10 60 39 85 65 l44 46 346 0 346 0 115 117 c62 65
345 351 627 636 l512 519 0 188 0 188 28 6 c15 3 47 8 72 11 25 4 53 9 63 11
16 5 17 -16 17 -333 l0 -338 -436 -436 -436 -436 -36 19 c-52 26 -169 25 -222
-2 -56 -29 -108 -77 -133 -124 -31 -58 -31 -184 0 -241 25 -47 85 -106 130
-129 98 -49 227 -22 303 65 25 28 293 300 595 605 l550 554 -4 454 -3 453 54
30 c30 17 92 63 139 101 128 106 213 213 293 372 211 413 211 907 0 1320 -80
159 -165 266 -293 372 -47 38 -109 84 -139 101 l-54 30 3 453 4 454 -550 554
c-302 305 -568 575 -590 601 -61 72 -172 109 -260 86z m142 -151 c87 -52 83
-198 -6 -245 -17 -8 -51 -15 -76 -15 -87 0 -145 55 -145 138 0 88 55 142 145
142 32 0 62 -7 82 -20z m-1861 -893 c31 -28 37 -41 41 -83 5 -59 -10 -90 -57
-122 -59 -40 -139 -17 -180 51 -24 39 -25 68 -3 114 21 46 67 73 121 73 34 0
49 -6 78 -33z m405 -742 c64 -34 87 -120 49 -183 -24 -39 -54 -52 -120 -52
-42 0 -52 4 -78 35 -43 49 -50 93 -21 144 36 65 107 88 170 56z m-976 -898
c84 -84 33 -217 -83 -217 -89 0 -143 63 -127 148 13 71 52 101 129 102 41 0
53 -5 81 -33z m803 -1062 c63 -53 66 -133 7 -192 -28 -28 -40 -33 -79 -33 -25
0 -56 5 -70 12 -78 35 -86 174 -12 219 46 28 117 26 154 -6z m-627 -1628 c46
-31 61 -62 56 -121 -4 -42 -10 -55 -41 -83 -29 -27 -44 -33 -78 -33 -24 0 -56
8 -74 19 -33 20 -64 75 -64 114 0 56 78 127 141 127 14 0 41 -10 60 -23z"/>
</g>
</svg>