<?xml version="1.0" standalone="no"?>
<svg version="1.0" xmlns="http://www.w3.org/2000/svg"
 width="1003" height="703" viewBox="0 0 1003 703"
 preserveAspectRatio="xMidYMid meet">
 
<defs>
  <filter id="pulseGlow" x="-100%" y="-100%" width="300%" height="300%">
    <feGaussianBlur in="SourceGraphic" stdDeviation="3" result="blur"/>
    <feMerge><feMergeNode in="blur"/><feMergeNode in="SourceGraphic"/></feMerge>
  </filter>
  <filter id="burstGlow" x="-200%" y="-200%" width="500%" height="500%">
    <feGaussianBlur in="SourceGraphic" stdDeviation="10" result="blur"/>
    <feMerge><feMergeNode in="blur"/><feMergeNode in="blur"/><feMergeNode in="SourceGraphic"/></feMerge>
  </filter>
</defs>

<!-- Logo -->
<g transform="translate(0,703) scale(0.1,-0.1)" stroke="none">
<path fill="#1e3a5f" d="M7030 6770 c-40 -14 -67 -34 -100 -71 -25 -28 -294 -302 -599 -609 l-554 -558 8 -449 7 -450 -54 -31 c-71 -39 -212 -157 -263 -218 -191 -229 -292 -479 -325 -806 -8 -78 -8 -138 0 -215 33 -328 134 -578 325 -807 51 -61 192 -179 263 -218 l54 -31 -7 -450 -8 -449 554 -558 c305 -307 574 -581 599 -609 138 -156 387 -95 456 111 40 122 -21 259 -146 324 -50 26 -181 26 -233 0 l-39 -19 -434 434 -434 434 0 338 c0 317 1 338 18 333 9 -2 37 -7 62 -11 25 -3 57 -8 73 -11 l27 -6 0 -188 0 -189 493 -498 c270 -274 553 -560 627 -636 l134 -137 345 0 344 0 57 -54 c73 -70 140 -93 226 -77 66 13 109 37 157 91 54 59 68 94 70 169 6 233 -271 365 -445 212 l-36 -31 -290 0 -290 0 -536 541 -536 541 0 124 0 124 148 0 147 0 510 -510 510 -510 419 0 419 0 40 -36 c123 -112 307 -101 402 22 92 121 83 266 -22 365 -62 60 -98 73 -188 74 -93 0 -129 -14 -193 -75 l-41 -40 -353 0 -353 0 -280 283 c-154 155 -306 309 -338 343 l-58 61 72 77 72 77 201 -200 201 -201 214 0 214 0 39 -36 c54 -49 98 -65 175 -65 75 0 131 23 187 77 138 134 100 351 -78 441 -43 22 -59 25 -121 21 -82 -6 -134 -29 -188 -85 l-38 -38 -137 3 -137 4 -147 146 c-82 81 -148 151 -148 155 0 5 57 67 127 138 l126 129 666 0 666 0 35 -37 c19 -20 59 -47 89 -61 111 -51 249 -8 325 101 35 50 39 64 44 129 6 96 -20 160 -89 222 -111 100 -247 100 -358 0 l-49 -44 -732 0 -732 0 -232 -230 -232 -230 -531 0 c-619 0 -653 3 -798 75 -49 25 -114 65 -143 91 -106 93 -192 243 -239 419 -23 88 -26 119 -26 255 0 136 3 167 26 255 47 176 133 326 239 419 29 26 94 66 143 91 145 72 179 75 798 75 l531 0 232 -230 232 -230 327 0 327 0 49 -44 c111 -100 247 -100 358 0 69 62 95 126 89 222 -5 65 -9 79 -44 129 -76 109 -214 152 -325 101 -30 -14 -70 -41 -89 -61 l-35 -37 -261 0 -261 0 -126 129 c-70 71 -127 133 -127 138 0 4 66 74 148 155 l147 146 137 4 137 3 38 -38 c54 -56 106 -79 188 -85 62 -4 78 -1 121 21 178 90 216 307 78 441 -56 54 -112 77 -187 77 -77 0 -121 -16 -175 -65 l-39 -36 -214 0 -214 0 -201 -201 -201 -200 -72 77 -72 77 58 61 c32 34 184 188 338 343 l280 283 543 0 543 0 41 -40 c64 -61 100 -75 193 -75 90 1 126 14 188 74 77 73 104 174 73 269 -67 200 -296 260 -453 118 l-40 -36 -609 0 -609 0 -510 -510 -510 -510 -147 0 -148 0 0 124 0 124 536 541 536 541 290 0 290 0 36 -31 c131 -115 336 -73 417 86 26 50 30 68 28 126 -2 76 -17 111 -70 169 -48 54 -91 78 -157 91 -86 16 -153 -7 -226 -77 l-57 -54 -344 0 -345 0 -134 -137 c-74 -76 -357 -362 -627 -636 l-493 -498 0 -189 0 -188 -27 -6 c-16 -3 -48 -8 -73 -11 -25 -4 -53 -9 -62 -11 -17 -5 -18 16 -18 333 l0 338 436 436 436 436 39 -20 c56 -28 161 -27 216 1 60 31 110 78 136 126 17 32 22 58 22 121 0 90 -14 125 -74 188 -75 80 -180 104 -281 67z m2406 -1019 c33 -20 64 -75 64 -113 0 -12 -9 -37 -20 -55 -41 -68 -121 -91 -180 -51 -47 32 -62 63 -57 122 4 42 10 55 41 83 29 27 44 33 78 33 24 0 56 -8 74 -19z m-622 -1633 c78 -35 86 -174 12 -219 -46 -28 -117 -26 -154 6 -63 53 -66 133 -7 192 28 28 40 33 79 33 25 0 56 -5 70 -12z m822 -1077 c74 -45 66 -184 -12 -219 -14 -7 -45 -12 -70 -12 -39 0 -51 5 -79 33 -59 59 -56 139 7 192 37 32 108 34 154 6z m-988 -896 c43 -49 50 -93 21 -144 -50 -90 -167 -94 -219 -8 -25 41 -25 93 0 135 24 40 49 51 116 51 47 1 55 -2 82 -34z m408 -740 c32 -20 64 -73 64 -103 0 -38 -31 -93 -64 -113 -18 -11 -50 -19 -74 -19 -34 0 -49 6 -78 33 -31 28 -37 41 -41 83 -5 59 10 90 57 122 40 27 92 26 136 -3z m-1860 -851 c45 -21 74 -70 74 -124 0 -108 -113 -173 -216 -124 -97 46 -98 200 -1 248 41 20 100 20 143 0z"/>
<path fill="#5a7d8a" d="M2845 6771 c-152 -40 -243 -198 -201 -346 46 -155 233 -239 379 -169 l38 18 434 -434 435 -435 0 -338 c0 -317 -1 -338 -17 -333 -10 2 -38 7 -63 11 -25 3 -57 8 -72 11 l-28 6 0 188 0 188 -512 519 c-282 285 -565 571 -627 636 l-115 117 -345 0 -344 0 -57 54 c-73 70 -140 93 -226 77 -66 -13 -109 -37 -157 -91 -53 -58 -68 -93 -70 -169 -2 -58 2 -76 28 -126 81 -159 286 -201 417 -86 l36 31 289 0 289 0 440 -442 c242 -244 486 -491 542 -549 l102 -107 0 -109 c0 -71 -4 -113 -12 -121 -8 -8 -55 -12 -147 -12 l-136 0 -510 509 -510 509 -424 6 -424 6 -40 36 c-59 54 -111 74 -192 74 -83 0 -135 -21 -190 -75 -56 -56 -79 -116 -79 -200 0 -82 20 -129 81 -186 62 -60 98 -73 188 -74 93 0 132 15 191 75 l39 40 355 0 355 0 280 -283 c154 -155 306 -309 338 -343 l58 -61 -72 -77 -72 -77 -196 195 -196 195 -216 3 -216 3 -43 38 c-57 52 -96 67 -177 67 -78 0 -131 -22 -187 -76 -138 -134 -100 -351 78 -441 43 -22 59 -25 121 -21 83 6 136 30 191 88 l38 40 130 0 130 0 153 -152 c84 -84 153 -156 153 -161 0 -5 -57 -67 -127 -138 l-126 -129 -666 0 -666 0 -35 37 c-19 20 -59 47 -89 61 -111 51 -249 8 -325 -101 -35 -50 -39 -64 -44 -129 -6 -96 20 -160 89 -222 111 -100 247 -100 358 0 l49 44 731 0 732 0 239 236 240 236 527 -5 c609 -6 640 -9 788 -82 50 -25 114 -65 143 -91 106 -93 191 -243 239 -419 24 -88 27 -118 27 -255 0 -137 -3 -167 -27 -255 -48 -176 -133 -326 -239 -419 -29 -26 -93 -66 -143 -91 -148 -73 -179 -76 -788 -82 l-527 -5 -240 236 -239 236 -327 0 -326 0 -49 44 c-111 100 -247 100 -358 0 -69 -62 -95 -126 -89 -222 5 -65 9 -79 44 -129 76 -109 214 -152 325 -101 30 14 70 41 89 61 l35 37 261 0 261 0 126 -129 c70 -71 127 -133 127 -138 0 -5 -69 -77 -153 -161 l-153 -152 -130 0 -130 0 -38 40 c-55 58 -108 82 -191 88 -62 4 -78 1 -121 -21 -178 -90 -216 -307 -78 -441 56 -54 109 -76 187 -76 81 0 120 15 177 67 l43 38 216 3 216 3 196 195 196 195 72 -77 72 -77 -58 -61 c-32 -34 -184 -188 -338 -343 l-280 -283 -545 0 -545 0 -39 40 c-59 60 -98 75 -191 75 -90 -1 -126 -14 -188 -74 -61 -57 -81 -104 -81 -186 0 -84 23 -144 79 -200 55 -54 107 -75 190 -75 83 0 129 19 198 78 l48 42 607 0 607 0 510 510 510 510 136 0 c92 0 139 -4 147 -12 8 -8 12 -50 12 -121 l0 -109 -102 -107 c-56 -58 -300 -305 -542 -549 l-440 -442 -289 0 -289 0 -36 31 c-51 45 -97 62 -172 62 -110 1 -197 -51 -244 -145 -21 -42 -26 -66 -26 -128 0 -66 4 -82 28 -121 34 -53 93 -106 138 -125 49 -20 161 -18 209 5 22 10 60 39 85 65 l44 46 346 0 346 0 115 117 c62 65 345 351 627 636 l512 519 0 188 0 188 28 6 c15 3 47 8 72 11 25 4 53 9 63 11 16 5 17 -16 17 -333 l0 -338 -436 -436 -436 -436 -36 19 c-52 26 -169 25 -222 -2 -56 -29 -108 -77 -133 -124 -31 -58 -31 -184 0 -241 25 -47 85 -106 130 -129 98 -49 227 -22 303 65 25 28 293 300 595 605 l550 554 -4 454 -3 453 54 30 c30 17 92 63 139 101 128 106 213 213 293 372 211 413 211 907 0 1320 -80 159 -165 266 -293 372 -47 38 -109 84 -139 101 l-54 30 3 453 4 454 -550 554 c-302 305 -568 575 -590 601 -61 72 -172 109 -260 86z m142 -151 c87 -52 83 -198 -6 -245 -17 -8 -51 -15 -76 -15 -87 0 -145 55 -145 138 0 88 55 142 145 142 32 0 62 -7 82 -20z m-1861 -893 c31 -28 37 -41 41 -83 5 -59 -10 -90 -57 -122 -59 -40 -139 -17 -180 51 -24 39 -25 68 -3 114 21 46 67 73 121 73 34 0 49 -6 78 -33z m405 -742 c64 -34 87 -120 49 -183 -24 -39 -54 -52 -120 -52 -42 0 -52 4 -78 35 -43 49 -50 93 -21 144 36 65 107 88 170 56z m-976 -898 c84 -84 33 -217 -83 -217 -89 0 -143 63 -127 148 13 71 52 101 129 102 41 0 53 -5 81 -33z m803 -1062 c63 -53 66 -133 7 -192 -28 -28 -40 -33 -79 -33 -25 0 -56 5 -70 12 -78 35 -86 174 -12 219 46 28 117 26 154 -6z m-627 -1628 c46 -31 61 -62 56 -121 -4 -42 -10 -55 -41 -83 -29 -27 -44 -33 -78 -33 -24 0 -56 8 -74 19 -33 20 -64 75 -64 114 0 56 78 127 141 127 14 0 41 -10 60 -23z"/>
</g>

<!-- PATH 1 --><path d="M460.0,357.0 C458.8,351.5,458.2,335.8,453.0,324.0 C447.8,312.2,436.5,296.3,429.0,286.0 C421.5,275.7,412.5,272.0,408.0,262.0 C403.5,252.0,402.5,240.8,402.0,226.0 C401.5,211.2,404.8,185.5,405.0,173.0 C405.2,160.5,411.7,162.5,403.0,151.0 C394.3,139.5,365.7,116.0,353.0,104.0 C340.3,92.0,337.8,88.2,327.0,79.0 C316.2,69.8,294.5,54.0,288.0,49.0" fill="none" stroke="#00ff44" stroke-width="4" stroke-linecap="round" filter="url(#pulseGlow)" opacity="0" stroke-dasharray="600" stroke-dashoffset="600"><animate attributeName="stroke-dashoffset" values="600;-600" dur="0.5s" begin="0s;18s;36s;54s;72s;90s;108s;126s;144s;162s;180s;198s;216s;234s;252s;270s;288s;306s;324s;342s;360s;378s;396s;414s;432s;450s;468s;486s;504s;522s;540s;558s;576s;594s" fill="freeze"/><animate attributeName="opacity" values="0;0.3;1;1;0" keyTimes="0;0.1;0.3;0.9;1" dur="0.5s" begin="0s;18s;36s;54s;72s;90s;108s;126s;144s;162s;180s;198s;216s;234s;252s;270s;288s;306s;324s;342s;360s;378s;396s;414s;432s;450s;468s;486s;504s;522s;540s;558s;576s;594s" fill="freeze"/></path><circle cx="288" cy="49" r="0" fill="#00ff44" opacity="0" filter="url(#burstGlow)"><animate attributeName="r" values="0;25;0" keyTimes="0;0.3;1" dur="1s" begin="0.5s;18.5s;36.5s;54.5s;72.5s;90.5s;108.5s;126.5s;144.5s;162.5s;180.5s;198.5s;216.5s;234.5s;252.5s;270.5s;288.5s;306.5s;324.5s;342.5s;360.5s;378.5s;396.5s;414.5s;432.5s;450.5s;468.5s;486.5s;504.5s;522.5s;540.5s;558.5s;576.5s;594.5s" fill="freeze"/><animate attributeName="opacity" values="0;1;0" keyTimes="0;0.2;1" dur="1s" begin="0.5s;18.5s;36.5s;54.5s;72.5s;90.5s;108.5s;126.5s;144.5s;162.5s;180.5s;198.5s;216.5s;234.5s;252.5s;270.5s;288.5s;306.5s;324.5s;342.5s;360.5s;378.5s;396.5s;414.5s;432.5s;450.5s;468.5s;486.5s;504.5s;522.5s;540.5s;558.5s;576.5s;594.5s" fill="freeze"/></circle>

<!-- PATH 2 --><path d="M 452 348 L 449 397 L 434 428 L 400 457 L 349 462 L 356 501 L 345 531 L 310 568 L 279 598 L 257 624 L 242 637 L 196 636 L 159 636" fill="none" stroke="#00ff44" stroke-width="4" stroke-linecap="round" filter="url(#pulseGlow)" opacity="0" stroke-dasharray="600" stroke-dashoffset="600"><animate attributeName="stroke-dashoffset" values="600;-600" dur="0.5s" begin="1.5s;19.5s;37.5s;55.5s;73.5s;91.5s;109.5s;127.5s;145.5s;163.5s;181.5s;199.5s;217.5s;235.5s;253.5s;271.5s;289.5s;307.5s;325.5s;343.5s;361.5s;379.5s;397.5s;415.5s;433.5s;451.5s;469.5s;487.5s;505.5s;523.5s;541.5s;559.5s;577.5s;595.5s" fill="freeze"/><animate attributeName="opacity" values="0;0.3;1;1;0" keyTimes="0;0.1;0.3;0.9;1" dur="0.5s" begin="1.5s;19.5s;37.5s;55.5s;73.5s;91.5s;109.5s;127.5s;145.5s;163.5s;181.5s;199.5s;217.5s;235.5s;253.5s;271.5s;289.5s;307.5s;325.5s;343.5s;361.5s;379.5s;397.5s;415.5s;433.5s;451.5s;469.5s;487.5s;505.5s;523.5s;541.5s;559.5s;577.5s;595.5s" fill="freeze"/></path><circle cx="159" cy="636" r="0" fill="#00ff44" opacity="0" filter="url(#burstGlow)"><animate attributeName="r" values="0;25;0" keyTimes="0;0.3;1" dur="1s" begin="2s;20s;38s;56s;74s;92s;110s;128s;146s;164s;182s;200s;218s;236s;254s;272s;290s;308s;326s;344s;362s;380s;398s;416s;434s;452s;470s;488s;506s;524s;542s;560s;578s;596s" fill="freeze"/><animate attributeName="opacity" values="0;1;0" keyTimes="0;0.2;1" dur="1s" begin="2s;20s;38s;56s;74s;92s;110s;128s;146s;164s;182s;200s;218s;236s;254s;272s;290s;308s;326s;344s;362s;380s;398s;416s;434s;452s;470s;488s;506s;524s;542s;560s;578s;596s" fill="freeze"/></circle>

<!-- PATH 3 --><path d="M542.0,349.0 C542.0,343.7,537.3,328.2,542.0,317.0 C546.7,305.8,559.3,290.8,570.0,282.0 C580.7,273.2,592.3,268.8,606.0,264.0 C619.7,259.2,633.3,255.3,652.0,253.0 C670.7,250.7,701.8,249.5,718.0,250.0 C734.2,250.5,739.0,249.8,749.0,256.0 C759.0,262.2,769.3,279.5,778.0,287.0 C786.7,294.5,790.0,298.5,801.0,301.0 C812.0,303.5,832.0,301.7,844.0,302.0 C856.0,302.3,868.2,302.8,873.0,303.0" fill="none" stroke="#00ff44" stroke-width="4" stroke-linecap="round" filter="url(#pulseGlow)" opacity="0" stroke-dasharray="600" stroke-dashoffset="600"><animate attributeName="stroke-dashoffset" values="600;-600" dur="0.5s" begin="3s;21s;39s;57s;75s;93s;111s;129s;147s;165s;183s;201s;219s;237s;255s;273s;291s;309s;327s;345s;363s;381s;399s;417s;435s;453s;471s;489s;507s;525s;543s;561s;579s;597s" fill="freeze"/><animate attributeName="opacity" values="0;0.3;1;1;0" keyTimes="0;0.1;0.3;0.9;1" dur="0.5s" begin="3s;21s;39s;57s;75s;93s;111s;129s;147s;165s;183s;201s;219s;237s;255s;273s;291s;309s;327s;345s;363s;381s;399s;417s;435s;453s;471s;489s;507s;525s;543s;561s;579s;597s" fill="freeze"/></path><circle cx="873" cy="303" r="0" fill="#00ff44" opacity="0" filter="url(#burstGlow)"><animate attributeName="r" values="0;25;0" keyTimes="0;0.3;1" dur="1s" begin="3.5s;21.5s;39.5s;57.5s;75.5s;93.5s;111.5s;129.5s;147.5s;165.5s;183.5s;201.5s;219.5s;237.5s;255.5s;273.5s;291.5s;309.5s;327.5s;345.5s;363.5s;381.5s;399.5s;417.5s;435.5s;453.5s;471.5s;489.5s;507.5s;525.5s;543.5s;561.5s;579.5s;597.5s" fill="freeze"/><animate attributeName="opacity" values="0;1;0" keyTimes="0;0.2;1" dur="1s" begin="3.5s;21.5s;39.5s;57.5s;75.5s;93.5s;111.5s;129.5s;147.5s;165.5s;183.5s;201.5s;219.5s;237.5s;255.5s;273.5s;291.5s;309.5s;327.5s;345.5s;363.5s;381.5s;399.5s;417.5s;435.5s;453.5s;471.5s;489.5s;507.5s;525.5s;543.5s;561.5s;579.5s;597.5s" fill="freeze"/></circle>

<!-- PATH 4 --><path d="M452.0,351.0 C451.2,344.0,451.5,320.8,447.0,309.0 C442.5,297.2,432.0,287.3,425.0,280.0 C418.0,272.7,414.5,269.5,405.0,265.0 C395.5,260.5,383.8,255.8,368.0,253.0 C352.2,250.2,322.3,248.8,310.0,248.0 C297.7,247.2,302.2,247.8,294.0,248.0 C285.8,248.2,269.5,246.3,261.0,249.0 C252.5,251.7,249.0,257.7,243.0,264.0 C237.0,270.3,230.2,281.0,225.0,287.0 C219.8,293.0,218.2,297.2,212.0,300.0 C205.8,302.8,201.0,303.2,188.0,304.0 C175.0,304.8,147.0,304.5,134.0,305.0 C121.0,305.5,117.7,307.3,110.0,307.0 C102.3,306.7,97.8,303.5,88.0,303.0 C78.2,302.5,57.3,303.8,51.0,304.0 C44.7,304.2,50.2,304.0,50.0,304.0" fill="none" stroke="#00ff44" stroke-width="4" stroke-linecap="round" filter="url(#pulseGlow)" opacity="0" stroke-dasharray="700" stroke-dashoffset="700"><animate attributeName="stroke-dashoffset" values="700;-700" dur="0.5s" begin="4.5s;22.5s;40.5s;58.5s;76.5s;94.5s;112.5s;130.5s;148.5s;166.5s;184.5s;202.5s;220.5s;238.5s;256.5s;274.5s;292.5s;310.5s;328.5s;346.5s;364.5s;382.5s;400.5s;418.5s;436.5s;454.5s;472.5s;490.5s;508.5s;526.5s;544.5s;562.5s;580.5s;598.5s" fill="freeze"/><animate attributeName="opacity" values="0;0.3;1;1;0" keyTimes="0;0.1;0.3;0.9;1" dur="0.5s" begin="4.5s;22.5s;40.5s;58.5s;76.5s;94.5s;112.5s;130.5s;148.5s;166.5s;184.5s;202.5s;220.5s;238.5s;256.5s;274.5s;292.5s;310.5s;328.5s;346.5s;364.5s;382.5s;400.5s;418.5s;436.5s;454.5s;472.5s;490.5s;508.5s;526.5s;544.5s;562.5s;580.5s;598.5s" fill="freeze"/></path><circle cx="50" cy="304" r="0" fill="#00ff44" opacity="0" filter="url(#burstGlow)"><animate attributeName="r" values="0;25;0" keyTimes="0;0.3;1" dur="1s" begin="5s;23s;41s;59s;77s;95s;113s;131s;149s;167s;185s;203s;221s;239s;257s;275s;293s;311s;329s;347s;365s;383s;401s;419s;437s;455s;473s;491s;509s;527s;545s;563s;581s;599s" fill="freeze"/><animate attributeName="opacity" values="0;1;0" keyTimes="0;0.2;1" dur="1s" begin="5s;23s;41s;59s;77s;95s;113s;131s;149s;167s;185s;203s;221s;239s;257s;275s;293s;311s;329s;347s;365s;383s;401s;419s;437s;455s;473s;491s;509s;527s;545s;563s;581s;599s" fill="freeze"/></circle>

<!-- PATH 5 --><path d="M542.0,340.0 C542.2,344.5,542.0,359.3,543.0,367.0 C544.0,374.7,545.2,379.5,548.0,386.0 C550.8,392.5,556.3,400.2,560.0,406.0 C563.7,411.8,567.3,416.5,570.0,421.0 C572.7,425.5,571.0,428.0,576.0,433.0 C581.0,438.0,593.7,447.2,600.0,451.0 C606.3,454.8,607.3,454.2,614.0,456.0 C620.7,457.8,632.5,461.2,640.0,462.0 C647.5,462.8,650.8,461.2,659.0,461.0 C667.2,460.8,679.5,460.7,689.0,461.0 C698.5,461.3,708.0,463.0,716.0,463.0 C724.0,463.0,731.2,462.0,737.0,461.0 C742.8,460.0,745.5,455.5,751.0,457.0 C756.5,458.5,762.8,464.7,770.0,470.0 C777.2,475.3,786.8,485.2,794.0,489.0 C801.2,492.8,806.3,491.5,813.0,493.0 C819.7,494.5,826.8,497.7,834.0,498.0 C841.2,498.3,852.3,495.5,856.0,495.0" fill="none" stroke="#00ff44" stroke-width="4" stroke-linecap="round" filter="url(#pulseGlow)" opacity="0" stroke-dasharray="600" stroke-dashoffset="600"><animate attributeName="stroke-dashoffset" values="600;-600" dur="0.5s" begin="6s;24s;42s;60s;78s;96s;114s;132s;150s;168s;186s;204s;222s;240s;258s;276s;294s;312s;330s;348s;366s;384s;402s;420s;438s;456s;474s;492s;510s;528s;546s;564s;582s;600s" fill="freeze"/><animate attributeName="opacity" values="0;0.3;1;1;0" keyTimes="0;0.1;0.3;0.9;1" dur="0.5s" begin="6s;24s;42s;60s;78s;96s;114s;132s;150s;168s;186s;204s;222s;240s;258s;276s;294s;312s;330s;348s;366s;384s;402s;420s;438s;456s;474s;492s;510s;528s;546s;564s;582s;600s" fill="freeze"/></path><circle cx="856" cy="495" r="0" fill="#00ff44" opacity="0" filter="url(#burstGlow)"><animate attributeName="r" values="0;25;0" keyTimes="0;0.3;1" dur="1s" begin="6.5s;24.5s;42.5s;60.5s;78.5s;96.5s;114.5s;132.5s;150.5s;168.5s;186.5s;204.5s;222.5s;240.5s;258.5s;276.5s;294.5s;312.5s;330.5s;348.5s;366.5s;384.5s;402.5s;420.5s;438.5s;456.5s;474.5s;492.5s;510.5s;528.5s;546.5s;564.5s;582.5s;600.5s" fill="freeze"/><animate attributeName="opacity" values="0;1;0" keyTimes="0;0.2;1" dur="1s" begin="6.5s;24.5s;42.5s;60.5s;78.5s;96.5s;114.5s;132.5s;150.5s;168.5s;186.5s;204.5s;222.5s;240.5s;258.5s;276.5s;294.5s;312.5s;330.5s;348.5s;366.5s;384.5s;402.5s;420.5s;438.5s;456.5s;474.5s;492.5s;510.5s;528.5s;546.5s;564.5s;582.5s;600.5s" fill="freeze"/></circle>

<!-- PATH 6 --><path d="M548.0,339.0 C548.2,334.2,545.8,319.8,549.0,310.0 C552.2,300.2,558.7,288.5,567.0,280.0 C575.3,271.5,588.7,264.2,599.0,259.0 C609.3,253.8,619.8,251.2,629.0,249.0 C638.2,246.8,643.8,247.0,654.0,246.0 C664.2,245.0,680.7,243.0,690.0,243.0 C699.3,243.0,703.7,245.0,710.0,246.0 C716.3,247.0,720.8,248.3,728.0,249.0 C735.2,249.7,744.7,252.2,753.0,250.0 C761.3,247.8,770.2,241.5,778.0,236.0 C785.8,230.5,790.2,220.8,800.0,217.0 C809.8,213.2,826.8,213.2,837.0,213.0 C847.2,212.8,857.0,215.5,861.0,216.0" fill="none" stroke="#00ff44" stroke-width="4" stroke-linecap="round" filter="url(#pulseGlow)" opacity="0" stroke-dasharray="600" stroke-dashoffset="600"><animate attributeName="stroke-dashoffset" values="600;-600" dur="0.5s" begin="7.5s;25.5s;43.5s;61.5s;79.5s;97.5s;115.5s;133.5s;151.5s;169.5s;187.5s;205.5s;223.5s;241.5s;259.5s;277.5s;295.5s;313.5s;331.5s;349.5s;367.5s;385.5s;403.5s;421.5s;439.5s;457.5s;475.5s;493.5s;511.5s;529.5s;547.5s;565.5s;583.5s;601.5s" fill="freeze"/><animate attributeName="opacity" values="0;0.3;1;1;0" keyTimes="0;0.1;0.3;0.9;1" dur="0.5s" begin="7.5s;25.5s;43.5s;61.5s;79.5s;97.5s;115.5s;133.5s;151.5s;169.5s;187.5s;205.5s;223.5s;241.5s;259.5s;277.5s;295.5s;313.5s;331.5s;349.5s;367.5s;385.5s;403.5s;421.5s;439.5s;457.5s;475.5s;493.5s;511.5s;529.5s;547.5s;565.5s;583.5s;601.5s" fill="freeze"/></path><circle cx="861" cy="216" r="0" fill="#00ff44" opacity="0" filter="url(#burstGlow)"><animate attributeName="r" values="0;25;0" keyTimes="0;0.3;1" dur="1s" begin="8s;26s;44s;62s;80s;98s;116s;134s;152s;170s;188s;206s;224s;242s;260s;278s;296s;314s;332s;350s;368s;386s;404s;422s;440s;458s;476s;494s;512s;530s;548s;566s;584s;602s" fill="freeze"/><animate attributeName="opacity" values="0;1;0" keyTimes="0;0.2;1" dur="1s" begin="8s;26s;44s;62s;80s;98s;116s;134s;152s;170s;188s;206s;224s;242s;260s;278s;296s;314s;332s;350s;368s;386s;404s;422s;440s;458s;476s;494s;512s;530s;548s;566s;584s;602s" fill="freeze"/></circle>

<!-- PATH 7 --><path d="M296.0,61.0 C302.5,64.5,321.3,71.0,335.0,82.0 C348.7,93.0,365.7,112.8,378.0,127.0 C390.3,141.2,404.2,148.0,409.0,167.0 C413.8,186.0,402.3,220.5,407.0,241.0 C411.7,261.5,428.0,272.7,437.0,290.0 C446.0,307.3,459.5,324.8,461.0,345.0 C462.5,365.2,452.5,393.2,446.0,411.0 C439.5,428.8,449.2,442.3,422.0,452.0 C394.8,461.7,314.3,470.2,283.0,469.0 C251.7,467.8,245.3,453.3,234.0,445.0 C222.7,436.7,225.5,424.7,215.0,419.0 C204.5,413.3,186.5,413.0,171.0,411.0 C155.5,409.0,130.2,407.7,122.0,407.0" fill="none" stroke="#00ff44" stroke-width="4" stroke-linecap="round" filter="url(#pulseGlow)" opacity="0" stroke-dasharray="800" stroke-dashoffset="800"><animate attributeName="stroke-dashoffset" values="800;-800" dur="0.5s" begin="9s;27s;45s;63s;81s;99s;117s;135s;153s;171s;189s;207s;225s;243s;261s;279s;297s;315s;333s;351s;369s;387s;405s;423s;441s;459s;477s;495s;513s;531s;549s;567s;585s;603s" fill="freeze"/><animate attributeName="opacity" values="0;0.3;1;1;0" keyTimes="0;0.1;0.3;0.9;1" dur="0.5s" begin="9s;27s;45s;63s;81s;99s;117s;135s;153s;171s;189s;207s;225s;243s;261s;279s;297s;315s;333s;351s;369s;387s;405s;423s;441s;459s;477s;495s;513s;531s;549s;567s;585s;603s" fill="freeze"/></path><circle cx="122" cy="407" r="0" fill="#00ff44" opacity="0" filter="url(#burstGlow)"><animate attributeName="r" values="0;25;0" keyTimes="0;0.3;1" dur="1s" begin="9.5s;27.5s;45.5s;63.5s;81.5s;99.5s;117.5s;135.5s;153.5s;171.5s;189.5s;207.5s;225.5s;243.5s;261.5s;279.5s;297.5s;315.5s;333.5s;351.5s;369.5s;387.5s;405.5s;423.5s;441.5s;459.5s;477.5s;495.5s;513.5s;531.5s;549.5s;567.5s;585.5s;603.5s" fill="freeze"/><animate attributeName="opacity" values="0;1;0" keyTimes="0;0.2;1" dur="1s" begin="9.5s;27.5s;45.5s;63.5s;81.5s;99.5s;117.5s;135.5s;153.5s;171.5s;189.5s;207.5s;225.5s;243.5s;261.5s;279.5s;297.5s;315.5s;333.5s;351.5s;369.5s;387.5s;405.5s;423.5s;441.5s;459.5s;477.5s;495.5s;513.5s;531.5s;549.5s;567.5s;585.5s;603.5s" fill="freeze"/></circle>

<!-- PATH 8 --><path d="M710.0,661.0 C702.3,656.0,680.0,644.7,664.0,631.0 C648.0,617.3,625.8,591.7,614.0,579.0 C602.2,566.3,596.7,569.3,593.0,555.0 C589.3,540.7,592.0,508.7,592.0,493.0 C592.0,477.3,598.5,472.3,593.0,461.0 C587.5,449.7,567.8,440.8,559.0,425.0 C550.2,409.2,542.5,383.5,540.0,366.0 C537.5,348.5,538.2,335.7,544.0,320.0 C549.8,304.3,565.5,282.5,575.0,272.0 C584.5,261.5,589.3,261.2,601.0,257.0 C612.7,252.8,627.8,249.3,645.0,247.0 C662.2,244.7,690.5,242.3,704.0,243.0 C717.5,243.7,717.8,249.0,726.0,251.0 C734.2,253.0,744.0,249.7,753.0,255.0 C762.0,260.3,771.0,275.8,780.0,283.0 C789.0,290.2,790.3,294.5,807.0,298.0 C823.7,301.5,867.8,303.0,880.0,304.0" fill="none" stroke="#00ff44" stroke-width="4" stroke-linecap="round" filter="url(#pulseGlow)" opacity="0" stroke-dasharray="900" stroke-dashoffset="900"><animate attributeName="stroke-dashoffset" values="900;-900" dur="0.5s" begin="10.5s;28.5s;46.5s;64.5s;82.5s;100.5s;118.5s;136.5s;154.5s;172.5s;190.5s;208.5s;226.5s;244.5s;262.5s;280.5s;298.5s;316.5s;334.5s;352.5s;370.5s;388.5s;406.5s;424.5s;442.5s;460.5s;478.5s;496.5s;514.5s;532.5s;550.5s;568.5s;586.5s;604.5s" fill="freeze"/><animate attributeName="opacity" values="0;0.3;1;1;0" keyTimes="0;0.1;0.3;0.9;1" dur="0.5s" begin="10.5s;28.5s;46.5s;64.5s;82.5s;100.5s;118.5s;136.5s;154.5s;172.5s;190.5s;208.5s;226.5s;244.5s;262.5s;280.5s;298.5s;316.5s;334.5s;352.5s;370.5s;388.5s;406.5s;424.5s;442.5s;460.5s;478.5s;496.5s;514.5s;532.5s;550.5s;568.5s;586.5s;604.5s" fill="freeze"/></path><circle cx="880" cy="304" r="0" fill="#00ff44" opacity="0" filter="url(#burstGlow)"><animate attributeName="r" values="0;25;0" keyTimes="0;0.3;1" dur="1s" begin="11s;29s;47s;65s;83s;101s;119s;137s;155s;173s;191s;209s;227s;245s;263s;281s;299s;317s;335s;353s;371s;389s;407s;425s;443s;461s;479s;497s;515s;533s;551s;569s;587s;605s" fill="freeze"/><animate attributeName="opacity" values="0;1;0" keyTimes="0;0.2;1" dur="1s" begin="11s;29s;47s;65s;83s;101s;119s;137s;155s;173s;191s;209s;227s;245s;263s;281s;299s;317s;335s;353s;371s;389s;407s;425s;443s;461s;479s;497s;515s;533s;551s;569s;587s;605s" fill="freeze"/></circle>

<!-- PATH 9 --><path d="M452.0,348.0 C451.5,356.2,452.0,383.7,449.0,397.0 C446.0,410.3,442.2,418.0,434.0,428.0 C425.8,438.0,411.3,450.2,400.0,457.0 C388.7,463.8,373.3,461.7,366.0,469.0 C358.7,476.3,359.5,490.7,356.0,501.0 C352.5,511.3,352.7,519.8,345.0,531.0 C337.3,542.2,321.0,556.8,310.0,568.0 C299.0,579.2,287.8,588.7,279.0,598.0 C270.2,607.3,263.2,617.5,257.0,624.0 C250.8,630.5,252.2,635.0,242.0,637.0 C231.8,639.0,209.8,636.2,196.0,636.0 C182.2,635.8,162.7,637.3,159.0,636.0 C155.3,634.7,163.5,628.7,174.0,628.0 C184.5,627.3,203.0,638.3,222.0,632.0 C241.0,625.7,269.0,603.5,288.0,590.0 C307.0,576.5,323.8,563.7,336.0,551.0 C348.2,538.3,359.8,527.3,361.0,514.0 C362.2,500.7,352.7,478.7,343.0,471.0 C333.3,463.3,317.7,470.0,303.0,468.0 C288.3,466.0,268.0,466.0,255.0,459.0 C242.0,452.0,237.2,434.8,225.0,426.0 C212.8,417.2,195.5,408.5,182.0,406.0 C168.5,403.5,153.5,410.3,144.0,411.0 C134.5,411.7,128.2,410.2,125.0,410.0" fill="none" stroke="#00ff44" stroke-width="4" stroke-linecap="round" filter="url(#pulseGlow)" opacity="0" stroke-dasharray="1000" stroke-dashoffset="1000"><animate attributeName="stroke-dashoffset" values="1000;-1000" dur="0.5s" begin="12s;30s;48s;66s;84s;102s;120s;138s;156s;174s;192s;210s;228s;246s;264s;282s;300s;318s;336s;354s;372s;390s;408s;426s;444s;462s;480s;498s;516s;534s;552s;570s;588s;606s" fill="freeze"/><animate attributeName="opacity" values="0;0.3;1;1;0" keyTimes="0;0.1;0.3;0.9;1" dur="0.5s" begin="12s;30s;48s;66s;84s;102s;120s;138s;156s;174s;192s;210s;228s;246s;264s;282s;300s;318s;336s;354s;372s;390s;408s;426s;444s;462s;480s;498s;516s;534s;552s;570s;588s;606s" fill="freeze"/></path><circle cx="125" cy="410" r="0" fill="#00ff44" opacity="0" filter="url(#burstGlow)"><animate attributeName="r" values="0;25;0" keyTimes="0;0.3;1" dur="1s" begin="12.5s;30.5s;48.5s;66.5s;84.5s;102.5s;120.5s;138.5s;156.5s;174.5s;192.5s;210.5s;228.5s;246.5s;264.5s;282.5s;300.5s;318.5s;336.5s;354.5s;372.5s;390.5s;408.5s;426.5s;444.5s;462.5s;480.5s;498.5s;516.5s;534.5s;552.5s;570.5s;588.5s;606.5s" fill="freeze"/><animate attributeName="opacity" values="0;1;0" keyTimes="0;0.2;1" dur="1s" begin="12.5s;30.5s;48.5s;66.5s;84.5s;102.5s;120.5s;138.5s;156.5s;174.5s;192.5s;210.5s;228.5s;246.5s;264.5s;282.5s;300.5s;318.5s;336.5s;354.5s;372.5s;390.5s;408.5s;426.5s;444.5s;462.5s;480.5s;498.5s;516.5s;534.5s;552.5s;570.5s;588.5s;606.5s" fill="freeze"/></circle>

<!-- PATH 10 --><path d="M457.0,351.0 C457.0,357.2,462.2,373.8,457.0,388.0 C451.8,402.2,438.3,423.8,426.0,436.0 C413.7,448.2,401.0,457.0,383.0,461.0 C365.0,465.0,333.8,457.8,318.0,460.0 C302.2,462.2,297.0,464.8,288.0,474.0 C279.0,483.2,274.3,502.0,264.0,515.0 C253.7,528.0,239.0,541.8,226.0,552.0 C213.0,562.2,204.8,572.0,186.0,576.0 C167.2,580.0,133.2,576.3,113.0,576.0 C92.8,575.7,73.0,574.3,65.0,574.0" fill="none" stroke="#00ff44" stroke-width="4" stroke-linecap="round" filter="url(#pulseGlow)" opacity="0" stroke-dasharray="700" stroke-dashoffset="700"><animate attributeName="stroke-dashoffset" values="700;-700" dur="0.5s" begin="13.5s;31.5s;49.5s;67.5s;85.5s;103.5s;121.5s;139.5s;157.5s;175.5s;193.5s;211.5s;229.5s;247.5s;265.5s;283.5s;301.5s;319.5s;337.5s;355.5s;373.5s;391.5s;409.5s;427.5s;445.5s;463.5s;481.5s;499.5s;517.5s;535.5s;553.5s;571.5s;589.5s;607.5s" fill="freeze"/><animate attributeName="opacity" values="0;0.3;1;1;0" keyTimes="0;0.1;0.3;0.9;1" dur="0.5s" begin="13.5s;31.5s;49.5s;67.5s;85.5s;103.5s;121.5s;139.5s;157.5s;175.5s;193.5s;211.5s;229.5s;247.5s;265.5s;283.5s;301.5s;319.5s;337.5s;355.5s;373.5s;391.5s;409.5s;427.5s;445.5s;463.5s;481.5s;499.5s;517.5s;535.5s;553.5s;571.5s;589.5s;607.5s" fill="freeze"/></path><circle cx="65" cy="574" r="0" fill="#00ff44" opacity="0" filter="url(#burstGlow)"><animate attributeName="r" values="0;25;0" keyTimes="0;0.3;1" dur="1s" begin="14s;32s;50s;68s;86s;104s;122s;140s;158s;176s;194s;212s;230s;248s;266s;284s;302s;320s;338s;356s;374s;392s;410s;428s;446s;464s;482s;500s;518s;536s;554s;572s;590s;608s" fill="freeze"/><animate attributeName="opacity" values="0;1;0" keyTimes="0;0.2;1" dur="1s" begin="14s;32s;50s;68s;86s;104s;122s;140s;158s;176s;194s;212s;230s;248s;266s;284s;302s;320s;338s;356s;374s;392s;410s;428s;446s;464s;482s;500s;518s;536s;554s;572s;590s;608s" fill="freeze"/></circle>

<!-- PATH 11 --><path d="M147.0,216.0 C152.3,215.8,169.7,214.5,179.0,215.0 C188.3,215.5,194.7,213.7,203.0,219.0 C211.3,224.3,223.8,237.5,229.0,247.0 C234.2,256.5,237.2,266.5,234.0,276.0 C230.8,285.5,231.2,298.8,210.0,304.0 C188.8,309.2,134.5,307.2,107.0,307.0 C79.5,306.8,55.3,303.7,45.0,303.0" fill="none" stroke="#00ff44" stroke-width="4" stroke-linecap="round" filter="url(#pulseGlow)" opacity="0" stroke-dasharray="400" stroke-dashoffset="400"><animate attributeName="stroke-dashoffset" values="400;-400" dur="0.5s" begin="15s;33s;51s;69s;87s;105s;123s;141s;159s;177s;195s;213s;231s;249s;267s;285s;303s;321s;339s;357s;375s;393s;411s;429s;447s;465s;483s;501s;519s;537s;555s;573s;591s;609s" fill="freeze"/><animate attributeName="opacity" values="0;0.3;1;1;0" keyTimes="0;0.1;0.3;0.9;1" dur="0.5s" begin="15s;33s;51s;69s;87s;105s;123s;141s;159s;177s;195s;213s;231s;249s;267s;285s;303s;321s;339s;357s;375s;393s;411s;429s;447s;465s;483s;501s;519s;537s;555s;573s;591s;609s" fill="freeze"/></path><circle cx="45" cy="303" r="0" fill="#00ff44" opacity="0" filter="url(#burstGlow)"><animate attributeName="r" values="0;25;0" keyTimes="0;0.3;1" dur="1s" begin="15.5s;33.5s;51.5s;69.5s;87.5s;105.5s;123.5s;141.5s;159.5s;177.5s;195.5s;213.5s;231.5s;249.5s;267.5s;285.5s;303.5s;321.5s;339.5s;357.5s;375.5s;393.5s;411.5s;429.5s;447.5s;465.5s;483.5s;501.5s;519.5s;537.5s;555.5s;573.5s;591.5s;609.5s" fill="freeze"/><animate attributeName="opacity" values="0;1;0" keyTimes="0;0.2;1" dur="1s" begin="15.5s;33.5s;51.5s;69.5s;87.5s;105.5s;123.5s;141.5s;159.5s;177.5s;195.5s;213.5s;231.5s;249.5s;267.5s;285.5s;303.5s;321.5s;339.5s;357.5s;375.5s;393.5s;411.5s;429.5s;447.5s;465.5s;483.5s;501.5s;519.5s;537.5s;555.5s;573.5s;591.5s;609.5s" fill="freeze"/></circle>

<!-- PATH 12 --><path d="M541.0,349.0 C543.3,340.8,543.5,315.7,555.0,300.0 C566.5,284.3,593.0,264.3,610.0,255.0 C627.0,245.7,639.0,245.7,657.0,244.0 C675.0,242.3,701.0,243.5,718.0,245.0 C735.0,246.5,748.3,254.8,759.0,253.0 C769.7,251.2,772.0,240.3,782.0,234.0 C792.0,227.7,807.2,218.5,819.0,215.0 C830.8,211.5,847.3,213.3,853.0,213.0" fill="none" stroke="#00ff44" stroke-width="4" stroke-linecap="round" filter="url(#pulseGlow)" opacity="0" stroke-dasharray="500" stroke-dashoffset="500"><animate attributeName="stroke-dashoffset" values="500;-500" dur="0.5s" begin="16.5s;34.5s;52.5s;70.5s;88.5s;106.5s;124.5s;142.5s;160.5s;178.5s;196.5s;214.5s;232.5s;250.5s;268.5s;286.5s;304.5s;322.5s;340.5s;358.5s;376.5s;394.5s;412.5s;430.5s;448.5s;466.5s;484.5s;502.5s;520.5s;538.5s;556.5s;574.5s;592.5s;610.5s" fill="freeze"/><animate attributeName="opacity" values="0;0.3;1;1;0" keyTimes="0;0.1;0.3;0.9;1" dur="0.5s" begin="16.5s;34.5s;52.5s;70.5s;88.5s;106.5s;124.5s;142.5s;160.5s;178.5s;196.5s;214.5s;232.5s;250.5s;268.5s;286.5s;304.5s;322.5s;340.5s;358.5s;376.5s;394.5s;412.5s;430.5s;448.5s;466.5s;484.5s;502.5s;520.5s;538.5s;556.5s;574.5s;592.5s;610.5s" fill="freeze"/></path><circle cx="853" cy="213" r="0" fill="#00ff44" opacity="0" filter="url(#burstGlow)"><animate attributeName="r" values="0;25;0" keyTimes="0;0.3;1" dur="1s" begin="17s;35s;53s;71s;89s;107s;125s;143s;161s;179s;197s;215s;233s;251s;269s;287s;305s;323s;341s;359s;377s;395s;413s;431s;449s;467s;485s;503s;521s;539s;557s;575s;593s;611s" fill="freeze"/><animate attributeName="opacity" values="0;1;0" keyTimes="0;0.2;1" dur="1s" begin="17s;35s;53s;71s;89s;107s;125s;143s;161s;179s;197s;215s;233s;251s;269s;287s;305s;323s;341s;359s;377s;395s;413s;431s;449s;467s;485s;503s;521s;539s;557s;575s;593s;611s" fill="freeze"/></circle>

</svg>